<?xml version="1.0" encoding="utf-8"?>
<!-- Generator: Adobe Illustrator 16.0.0, SVG Export Plug-In . SVG Version: 6.00 Build 0)  -->
<!DOCTYPE svg PUBLIC "-//W3C//DTD SVG 1.1//EN" "http://www.w3.org/Graphics/SVG/1.1/DTD/svg11.dtd">
<svg version="1.1" id="af24c1d2-8586-4e6b-81b3-4cf1a6f0777f"
	 xmlns="http://www.w3.org/2000/svg" xmlns:xlink="http://www.w3.org/1999/xlink" x="0px" y="0px" width="533.422px"
	 height="436.795px" viewBox="0 0 533.422 436.795" enable-background="new 0 0 533.422 436.795" xml:space="preserve">
<rect x="11.844" y="434.795" fill="#3F3D56" width="949.999" height="2"/>
<path fill="#F2F2F2" d="M464.896,142.149C408.204,63.261,288.447,31.26,170.67,65.726c-62.267,18.221-122.302,54.729-152.054,125.42
	C-34.568,317.515,77.1,357.872,150.119,370.735c35.309,6.221,68.563,16.668,98.95,30.893c54.672,25.594,151.44,48.27,224.413-58.332
	C526.374,266.032,502.656,194.696,464.896,142.149z"/>
<path fill="#2ABB57" d="M36.941,356.747c14.377,15.428,15.117,38.102,15.117,38.102s-22.563-2.338-36.939-17.766
	C0.744,361.657,0,338.983,0,338.983S22.566,341.321,36.941,356.747z"/>
<path fill="#2ABB57" d="M89.077,385.862c-15.428,14.377-38.102,15.119-38.102,15.119s2.338-22.564,17.766-36.939
	c15.426-14.377,38.1-15.119,38.1-15.119S104.502,371.487,89.077,385.862z"/>
<path fill="#010102" d="M85.243,431.649h-56.74c-2.221,0-4.246-1.27-5.219-3.267L10.93,402.987
	c-1.398-2.883-0.199-6.354,2.684-7.758c0.791-0.385,1.658-0.584,2.537-0.584h81.445c3.205,0,5.805,2.601,5.805,5.803
	c0,0.882-0.199,1.748-0.584,2.539l-12.355,25.396C89.489,430.381,87.463,431.649,85.243,431.649z"/>
<circle fill="#F9C5C5" cx="289.027" cy="83.798" r="47.244"/>
<path fill="#FCC3C3" d="M253.068,93.383c0,0,8.898,67.1-4.793,74.631c-13.693,7.531,81.479,8.216,81.479,8.216
	s-21.227-58.199-11.641-76L253.068,93.383z"/>
<path d="M399.945,176.57l-7.914,36.042l-16.736,76.252l-0.502,4.177l-5.775,48.346l-3.842,32.115l-2.576,21.573
	c-15.661,8.05-27.016,13.605-27.016,13.605s-0.977-4.896-2.551-11.158c-10.992,3.297-31.332,8.764-48.568,9.854
	c6.277,6.996,9.162,13.567,5.248,18.419c-11.809,14.621-60.557-16.011-77.606-27.436c-0.396,2.734-0.55,5.5-0.448,8.265
	l-13.049-10.035l1.291-23.09l2.18-39.065l2.736-48.994c-0.863-2.099-1.587-4.25-2.166-6.442
	c-3.996-14.212-8.85-42.589-12.566-66.386c-2.994-19.151-5.242-35.335-5.717-38.778c-0.064-0.45-0.1-0.681-0.1-0.681l72.23-31.917
	c5.133,11.905,29.104,15.483,29.104,15.483c19.855-1.368,35.426-11.84,35.426-11.84L399.945,176.57z"/>
<path fill="#FFB8B8" d="M341.064,394.991c0,0-3.061,1.048-8.031,2.531c-10.992,3.295-31.332,8.764-48.568,9.854
	c-14.842,0.949-27.381-1.338-29.676-11.021c-0.982-4.164,0.412-7.588,3.451-10.399c9.068-8.41,32.764-11.424,51.557-12.457
	c5.308-0.289,10.215-0.425,14.301-0.478c6.938-0.09,11.486,0.053,11.486,0.053l0.109,0.425L341.064,394.991z"/>
<path fill="#161619" d="M249.724,42.074l-8.834-3.537c0,0,18.473-20.334,44.168-18.566l-7.229-7.957c0,0,17.668-7.073,33.729,11.493
	c8.441,9.76,18.211,21.231,24.303,34.155h9.461l-3.949,8.693l13.818,8.693l-14.186-1.562c0.846,4.761,0.979,9.621,0.385,14.42
	c-0.605,4.801-3.059,9.177-6.832,12.206l0,0c0,0-10.951-22.676-10.951-26.212v8.841c0,0-8.834-7.957-8.834-13.261l-4.818,6.189
	l-2.408-9.725l-29.713,9.725l4.818-7.957l-18.473,2.652l7.229-9.725c0,0-20.879,11.493-21.686,21.218
	c-0.803,9.725-6.914,18.94-6.914,18.94S226.437,55.336,249.724,42.074z"/>
<path d="M451.296,342.267c-4.813,5.217-16.734,13.073-31.188,21.579c-5.381,3.16-11.104,6.418-16.941,9.656
	c-13.936,7.729-28.525,15.387-40.564,21.573c-15.66,8.05-27.016,13.604-27.016,13.604s-0.977-4.896-2.551-11.157
	c-2.107-8.386-5.281-19.226-8.59-24.021c-0.115-0.168-0.23-0.322-0.35-0.477c-0.963-1.268-1.934-2.006-2.891-2.006l47.811-29.637
	l20.662-12.813l-14.887-35.533l-18.67-44.572l11.27-35.855l11.326-36.042h21.229c0,0,7.025,15.342,16.016,36.735
	c1.344,3.199,2.729,6.533,4.146,9.979C438.595,268.256,461.646,331.055,451.296,342.267z"/>
<path fill="#FFB8B8" d="M289.712,425.798c-11.809,14.621-60.557-16.011-77.605-27.434c-3.715-2.485-5.926-4.063-5.926-4.063
	l15.602-20.803l4.938-6.584c0,0,4.42,2.344,10.953,6.159c0.238,0.142,0.479,0.281,0.721,0.425
	c5.637,3.312,12.707,7.633,19.848,12.457c9.85,6.661,19.807,14.264,26.225,21.42C290.742,414.375,293.626,420.947,289.712,425.798z"
	/>
<path d="M237.673,373.078c-1.742-0.007-3.48,0.135-5.203,0.424c-14.77,2.537-19.125,15.907-20.363,24.862
	c-0.396,2.734-0.551,5.5-0.449,8.263l-13.049-10.035l-4.756-3.655c-11.439-3.988-21.639-11.074-30.479-19.435
	c-7.67-7.379-14.549-15.537-20.527-24.343c-5.953-8.68-11.262-17.782-15.881-27.239c-2.605-5.344-2.711-11.567-0.273-16.994
	l16.154-36.008l23.617-52.631c0.174-1.253,0.365-2.478,0.572-3.675c4.684-26.854,17.229-38.778,17.229-38.778h9.587l6.411,38.778
	l7.969,48.179l-5.584,18.207l-12.898,42.047l12.328,13.392L237.673,373.078z"/>
<path fill="#38B6FF" d="M248.523,260.828l8.191,9.562c3.045-0.58,6.227-1.263,9.498-2.029l-2.354-7.529l5.754,6.716
	c34.689-8.533,77.688-25.121,77.688-25.121s-46.422,3.402-81.082-4.17c-15.336-3.353-31.111,4.252-37.407,18.633
	c-3.655,8.358-3.081,15.603,9.892,15.603c4.385-0.074,8.756-0.485,13.076-1.229L248.523,260.828z"/>
<path fill="#3F3D56" d="M435.332,417.96v3.899c0.002,1.068-0.195,2.132-0.584,3.129c-0.174,0.442-0.381,0.874-0.623,1.283
	c-1.559,2.614-4.377,4.218-7.422,4.216H139.816c-3.043,0.002-5.863-1.602-7.42-4.216c-0.242-0.409-0.451-0.841-0.623-1.283
	c-0.393-0.997-0.589-2.061-0.586-3.129v-3.899c0-4.766,3.857-8.626,8.625-8.628c0,0,0.002,0,0.004,0h16.537v-1.817
	c0-0.199,0.156-0.359,0.355-0.359l0,0h8.629c0.199,0,0.359,0.16,0.359,0.356c0,0.003,0,0.003,0,0.003v1.817h5.391v-1.817
	c0-0.199,0.16-0.359,0.359-0.359l0,0h8.629c0.197,0,0.359,0.16,0.359,0.356c0,0.002,0,0.003,0,0.003v1.817h5.396v-1.817
	c-0.002-0.199,0.16-0.359,0.357-0.359h0.002h8.627c0.197,0,0.357,0.16,0.357,0.356c0,0.002,0,0.003,0,0.003v1.817h5.393v-1.817
	c0-0.199,0.16-0.359,0.355-0.359c0.002,0,0.002,0,0.002,0h8.631c0.195,0,0.357,0.16,0.357,0.356c0,0.002,0,0.003,0,0.003v1.817
	h5.393v-1.817c-0.004-0.199,0.158-0.359,0.355-0.359h0.002h8.627c0.199,0,0.361,0.16,0.361,0.356c0,0.002,0,0.003,0,0.003v1.817
	h5.395v-1.817c0-0.199,0.16-0.359,0.359-0.359l0,0h8.629c0.199,0,0.359,0.16,0.359,0.356c0,0.002,0,0.003,0,0.003v1.816h5.391
	v-1.816c0-0.199,0.16-0.359,0.357-0.359h0.002h67.586c0.197,0,0.359,0.16,0.359,0.356c0,0.002,0,0.003,0,0.003v1.816h5.396v-1.816
	c0-0.199,0.16-0.359,0.357-0.359h0.002h8.627c0.197,0.002,0.357,0.162,0.359,0.359v1.816h5.391v-1.816
	c0-0.199,0.159-0.359,0.357-0.359c0,0,0,0,0.002,0h8.627c0.199,0,0.359,0.16,0.359,0.356c0,0.002,0,0.003,0,0.003v1.816h5.391
	v-1.816c0-0.199,0.16-0.359,0.357-0.359h0.002h8.627c0.199,0,0.359,0.16,0.361,0.356c0,0.002,0,0.003,0,0.003v1.816h5.396v-1.816
	c0-0.199,0.158-0.359,0.357-0.359l0,0h8.629c0.197,0.002,0.354,0.162,0.354,0.359v1.816h5.396v-1.816
	c0-0.199,0.16-0.359,0.359-0.359l0,0h8.629c0.195,0,0.357,0.16,0.357,0.356c0,0.002,0,0.003,0,0.003v1.816h5.393v-1.816
	c0-0.199,0.16-0.359,0.355-0.359c0,0,0,0,0.002,0h8.629c0.197,0,0.357,0.16,0.357,0.356c0,0.002,0,0.003,0,0.003v1.816h25.166
	c4.764-0.002,8.627,3.858,8.627,8.623C435.332,417.957,435.332,417.958,435.332,417.96z"/>
<path fill="#3F3D56" d="M412.232,253.729H305.3v-2.203h-48.484v2.203H149.441c-3.996,0-7.234,3.237-7.234,7.233l0,0v146.422
	c0,3.994,3.238,7.233,7.234,7.233l0,0h262.791c3.992,0,7.23-3.239,7.23-7.233l0,0V260.963
	C419.464,256.969,416.228,253.729,412.232,253.729L412.232,253.729z"/>
<circle fill="none" stroke="#2ABB57" stroke-width="2" stroke-miterlimit="10" cx="281.046" cy="304.85" r="16.061"/>
<circle fill="#38B6FF" cx="275.906" cy="310.631" r="16.062"/>
<path fill="#FFFFFF" d="M268.996,111.802c0,0,36.117,1.1,38.539,0.658C309.738,112.024,287.275,129.607,268.996,111.802z"/>
</svg>
